<svg width="14" height="14" viewBox="0 0 14 14" fill="none" xmlns="http://www.w3.org/2000/svg">
<path d="M0.333252 4.22214H3.11103V13.6666H0.333252V4.22214ZM1.71381 3.11103H1.69825C0.869363 3.11103 0.333252 2.49325 0.333252 1.72159C0.333252 0.933252 0.88603 0.333252 1.72992 0.333252C2.57492 0.333252 3.09547 0.933252 3.11103 1.72159C3.11103 2.4927 2.57492 3.11103 1.71381 3.11103ZM13.6666 13.6666H10.8888V8.61158C10.8888 7.39047 10.2083 6.55714 9.11547 6.55714C8.28159 6.55714 7.83047 7.11936 7.61158 7.6627C7.53158 7.85714 7.55547 8.39492 7.55547 8.66658V13.6666H4.7777V4.22214H7.55547V5.67547C7.95603 5.05547 8.58325 4.22214 10.1877 4.22214C12.1755 4.22214 13.666 5.47214 13.666 8.26325L13.6666 13.6666Z" fill="#1E1E1E"/>
</svg>
