<svg width="18" height="14" viewBox="0 0 18 14" fill="none" xmlns="http://www.w3.org/2000/svg">
<path d="M17.0284 0.359277C16.3493 0.68011 15.1934 1.28178 14.6126 1.39678C14.5901 1.40261 14.5718 1.41011 14.5501 1.41594C13.8726 0.74761 12.9443 0.333444 11.9168 0.333444C9.84594 0.333444 8.16677 2.01261 8.16677 4.08344C8.16677 4.19261 8.15761 4.39344 8.16677 4.50011C5.48511 4.50011 3.52677 3.10094 2.06094 1.30261C1.86511 1.06094 1.65677 1.18678 1.61344 1.35844C1.51594 1.74678 1.48261 2.39594 1.48261 2.85928C1.48261 4.02678 2.39511 5.17344 3.81594 5.88428C3.55427 5.95178 3.26594 6.00011 2.96594 6.00011C2.61261 6.00011 2.20594 5.90761 1.85011 5.72094C1.71844 5.65178 1.43427 5.67094 1.51844 6.00761C1.85594 7.35678 3.39594 8.30428 4.77177 8.58011C4.45927 8.76428 3.79261 8.72678 3.48594 8.72678C3.37261 8.72678 2.97844 8.70011 2.72344 8.66844C2.49094 8.64011 2.13344 8.70011 2.43261 9.15344C3.07511 10.1259 4.52844 10.7368 5.77927 10.7601C4.62761 11.6634 2.74427 11.9934 0.940108 11.9934C0.575108 11.9851 0.593441 12.4009 0.887608 12.5551C2.21844 13.2534 4.39844 13.6668 5.95594 13.6668C12.1476 13.6668 15.6668 8.94761 15.6668 4.49928C15.6668 4.42761 15.6651 4.27761 15.6626 4.12678C15.6626 4.11178 15.6668 4.09761 15.6668 4.08261C15.6668 4.06011 15.6601 4.03844 15.6601 4.01594C15.6576 3.90261 15.6551 3.79678 15.6526 3.74178C16.1434 3.38761 16.8951 2.77261 17.2751 2.30178C17.4043 2.14178 17.3001 1.94761 17.1243 2.00844C16.6718 2.16594 15.8893 2.47094 15.3993 2.52928C16.3801 1.88011 16.8651 1.31511 17.2818 0.68761C17.4243 0.473444 17.2459 0.255944 17.0284 0.359277Z" fill="#1E1E1E"/>
</svg>
