<svg width="306" height="39" viewBox="0 0 306 39" fill="none" xmlns="http://www.w3.org/2000/svg">
<rect x="107" width="144" height="39" fill="#56A658" fill-opacity="0.5"/>
<path d="M16.1165 11.5455V29H12.929L5.33523 18.0142H5.20739V29H1.51705V11.5455H4.75568L12.2898 22.5227H12.4432V11.5455H16.1165ZM21.3903 29.2472C20.555 29.2472 19.8107 29.1023 19.1573 28.8125C18.5039 28.517 17.9868 28.0824 17.6062 27.5085C17.2312 26.929 17.0437 26.2074 17.0437 25.3438C17.0437 24.6165 17.1772 24.0057 17.4442 23.5114C17.7113 23.017 18.0749 22.6193 18.5351 22.3182C18.9954 22.017 19.5181 21.7898 20.1033 21.6364C20.6942 21.483 21.3136 21.375 21.9613 21.3125C22.7226 21.233 23.3363 21.1591 23.8022 21.0909C24.2681 21.017 24.6062 20.9091 24.8164 20.767C25.0266 20.625 25.1317 20.4148 25.1317 20.1364V20.0852C25.1317 19.5455 24.9613 19.1278 24.6204 18.8324C24.2851 18.5369 23.8079 18.3892 23.1886 18.3892C22.5351 18.3892 22.0153 18.5341 21.6289 18.8239C21.2425 19.108 20.9868 19.4659 20.8618 19.8977L17.5039 19.625C17.6743 18.8295 18.0096 18.142 18.5096 17.5625C19.0096 16.9773 19.6545 16.5284 20.4442 16.2159C21.2397 15.8977 22.1601 15.7386 23.2056 15.7386C23.9329 15.7386 24.6289 15.8239 25.2937 15.9943C25.9641 16.1648 26.5579 16.429 27.0749 16.7869C27.5976 17.1449 28.0096 17.6051 28.3107 18.1676C28.6118 18.7244 28.7624 19.392 28.7624 20.1705V29H25.3192V27.1847H25.217C25.0067 27.5938 24.7255 27.9545 24.3732 28.267C24.0209 28.5739 23.5976 28.8153 23.1033 28.9915C22.609 29.1619 22.038 29.2472 21.3903 29.2472ZM22.43 26.7415C22.9641 26.7415 23.4357 26.6364 23.8448 26.4261C24.2539 26.2102 24.5749 25.9205 24.8079 25.5568C25.0408 25.1932 25.1573 24.7812 25.1573 24.321V22.9318C25.0437 23.0057 24.8874 23.0739 24.6886 23.1364C24.4954 23.1932 24.2766 23.2472 24.0323 23.2983C23.788 23.3437 23.5437 23.3864 23.2993 23.4261C23.055 23.4602 22.8334 23.4915 22.6346 23.5199C22.2084 23.5824 21.8363 23.6818 21.5181 23.8182C21.1999 23.9545 20.9528 24.1392 20.7766 24.3722C20.6005 24.5994 20.5124 24.8835 20.5124 25.2244C20.5124 25.7188 20.6914 26.0966 21.0493 26.358C21.413 26.6136 21.8732 26.7415 22.43 26.7415ZM33.7699 21.4318V29H30.1392V15.9091H33.5994V18.2188H33.7528C34.0426 17.4574 34.5284 16.8551 35.2102 16.4119C35.892 15.9631 36.7187 15.7386 37.6903 15.7386C38.5994 15.7386 39.392 15.9375 40.0682 16.3352C40.7443 16.733 41.2699 17.3011 41.6449 18.0398C42.0199 18.7727 42.2074 19.6477 42.2074 20.6648V29H38.5767V21.3125C38.5824 20.5114 38.3778 19.8864 37.963 19.4375C37.5483 18.983 36.9772 18.7557 36.25 18.7557C35.7613 18.7557 35.3295 18.8608 34.9545 19.071C34.5852 19.2812 34.2954 19.5881 34.0852 19.9915C33.8807 20.3892 33.7755 20.8693 33.7699 21.4318ZM43.697 29V11.5455H47.3277V18.108H47.4385C47.5976 17.7557 47.8277 17.3977 48.1289 17.0341C48.4357 16.6648 48.8334 16.358 49.322 16.1136C49.8164 15.8636 50.43 15.7386 51.163 15.7386C52.1175 15.7386 52.9982 15.9886 53.805 16.4886C54.6118 16.983 55.2567 17.7301 55.7397 18.7301C56.2226 19.7244 56.4641 20.9716 56.4641 22.4716C56.4641 23.9318 56.2283 25.1648 55.7567 26.1705C55.2908 27.1705 54.6544 27.929 53.8476 28.446C53.0465 28.9574 52.1488 29.2131 51.1544 29.2131C50.4499 29.2131 49.8505 29.0966 49.3561 28.8636C48.8675 28.6307 48.4669 28.3381 48.1544 27.9858C47.8419 27.6278 47.6033 27.267 47.4385 26.9034H47.2766V29H43.697ZM47.251 22.4545C47.251 23.233 47.359 23.9119 47.5749 24.4915C47.7908 25.071 48.1033 25.5227 48.5124 25.8466C48.9215 26.1648 49.4186 26.3239 50.0039 26.3239C50.5948 26.3239 51.0948 26.1619 51.5039 25.8381C51.913 25.5085 52.2226 25.054 52.4328 24.4744C52.6488 23.8892 52.7567 23.2159 52.7567 22.4545C52.7567 21.6989 52.6516 21.0341 52.4414 20.4602C52.2311 19.8864 51.9215 19.4375 51.5124 19.1136C51.1033 18.7898 50.6005 18.6278 50.0039 18.6278C49.413 18.6278 48.913 18.7841 48.5039 19.0966C48.1005 19.4091 47.7908 19.8523 47.5749 20.4261C47.359 21 47.251 21.6761 47.251 22.4545ZM61.1796 29.2472C60.3444 29.2472 59.6001 29.1023 58.9467 28.8125C58.2933 28.517 57.7762 28.0824 57.3955 27.5085C57.0205 26.929 56.833 26.2074 56.833 25.3438C56.833 24.6165 56.9666 24.0057 57.2336 23.5114C57.5007 23.017 57.8643 22.6193 58.3245 22.3182C58.7847 22.017 59.3075 21.7898 59.8927 21.6364C60.4836 21.483 61.1029 21.375 61.7507 21.3125C62.512 21.233 63.1257 21.1591 63.5916 21.0909C64.0575 21.017 64.3955 20.9091 64.6058 20.767C64.816 20.625 64.9211 20.4148 64.9211 20.1364V20.0852C64.9211 19.5455 64.7507 19.1278 64.4097 18.8324C64.0745 18.5369 63.5972 18.3892 62.9779 18.3892C62.3245 18.3892 61.8046 18.5341 61.4183 18.8239C61.0319 19.108 60.7762 19.4659 60.6512 19.8977L57.2933 19.625C57.4637 18.8295 57.7989 18.142 58.2989 17.5625C58.7989 16.9773 59.4438 16.5284 60.2336 16.2159C61.0291 15.8977 61.9495 15.7386 62.995 15.7386C63.7222 15.7386 64.4183 15.8239 65.083 15.9943C65.7535 16.1648 66.3472 16.429 66.8643 16.7869C67.387 17.1449 67.7989 17.6051 68.1001 18.1676C68.4012 18.7244 68.5518 19.392 68.5518 20.1705V29H65.1086V27.1847H65.0063C64.7961 27.5938 64.5149 27.9545 64.1626 28.267C63.8103 28.5739 63.387 28.8153 62.8927 28.9915C62.3984 29.1619 61.8274 29.2472 61.1796 29.2472ZM62.2194 26.7415C62.7535 26.7415 63.2251 26.6364 63.6342 26.4261C64.0433 26.2102 64.3643 25.9205 64.5972 25.5568C64.8302 25.1932 64.9467 24.7812 64.9467 24.321V22.9318C64.833 23.0057 64.6768 23.0739 64.4779 23.1364C64.2847 23.1932 64.066 23.2472 63.8217 23.2983C63.5774 23.3437 63.333 23.3864 63.0887 23.4261C62.8444 23.4602 62.6228 23.4915 62.4239 23.5199C61.9978 23.5824 61.6257 23.6818 61.3075 23.8182C60.9893 23.9545 60.7421 24.1392 60.566 24.3722C60.3899 24.5994 60.3018 24.8835 60.3018 25.2244C60.3018 25.7188 60.4808 26.0966 60.8387 26.358C61.2024 26.6136 61.6626 26.7415 62.2194 26.7415ZM73.5592 21.4318V29H69.9286V15.9091H73.3888V18.2188H73.5422C73.832 17.4574 74.3178 16.8551 74.9996 16.4119C75.6814 15.9631 76.5081 15.7386 77.4797 15.7386C78.3888 15.7386 79.1814 15.9375 79.8575 16.3352C80.5337 16.733 81.0592 17.3011 81.4342 18.0398C81.8092 18.7727 81.9967 19.6477 81.9967 20.6648V29H78.3661V21.3125C78.3717 20.5114 78.1672 19.8864 77.7524 19.4375C77.3376 18.983 76.7666 18.7557 76.0394 18.7557C75.5507 18.7557 75.1189 18.8608 74.7439 19.071C74.3746 19.2812 74.0848 19.5881 73.8746 19.9915C73.67 20.3892 73.5649 20.8693 73.5592 21.4318ZM87.6011 29V11.5455H99.3625V14.5881H91.2914V18.7472H98.7574V21.7898H91.2914V25.9574H99.3966V29H87.6011ZM110.325 16.5653C110.257 15.8778 109.964 15.3437 109.447 14.9631C108.93 14.5824 108.229 14.392 107.342 14.392C106.74 14.392 106.231 14.4773 105.817 14.6477C105.402 14.8125 105.084 15.0426 104.862 15.3381C104.646 15.6335 104.538 15.9688 104.538 16.3438C104.527 16.6562 104.592 16.929 104.734 17.1619C104.882 17.3949 105.084 17.5966 105.339 17.767C105.595 17.9318 105.891 18.0767 106.226 18.2017C106.561 18.321 106.919 18.4233 107.3 18.5085L108.868 18.8835C109.629 19.054 110.328 19.2812 110.964 19.5653C111.601 19.8494 112.152 20.1989 112.618 20.6136C113.084 21.0284 113.444 21.517 113.7 22.0795C113.962 22.642 114.095 23.2869 114.101 24.0142C114.095 25.0824 113.822 26.0085 113.283 26.7926C112.748 27.571 111.976 28.1761 110.964 28.608C109.959 29.0341 108.746 29.2472 107.325 29.2472C105.916 29.2472 104.689 29.0312 103.643 28.5994C102.604 28.1676 101.791 27.5284 101.206 26.6818C100.626 25.8295 100.322 24.7756 100.294 23.5199H103.865C103.905 24.1051 104.072 24.5937 104.368 24.9858C104.669 25.3722 105.069 25.6648 105.569 25.8636C106.075 26.0568 106.646 26.1534 107.283 26.1534C107.908 26.1534 108.45 26.0625 108.91 25.8807C109.376 25.6989 109.737 25.446 109.993 25.1222C110.248 24.7983 110.376 24.4261 110.376 24.0057C110.376 23.6136 110.26 23.2841 110.027 23.017C109.8 22.75 109.464 22.5227 109.021 22.3352C108.584 22.1477 108.047 21.9773 107.41 21.8239L105.51 21.3466C104.038 20.9886 102.876 20.429 102.024 19.6676C101.172 18.9062 100.748 17.8807 100.754 16.5909C100.748 15.5341 101.03 14.6108 101.598 13.821C102.172 13.0312 102.959 12.4148 103.959 11.9716C104.959 11.5284 106.095 11.3068 107.368 11.3068C108.663 11.3068 109.794 11.5284 110.76 11.9716C111.731 12.4148 112.487 13.0312 113.027 13.821C113.567 14.6108 113.845 15.5256 113.862 16.5653H110.325ZM126.717 17.1875C126.598 16.7727 126.43 16.4062 126.214 16.0881C125.998 15.7642 125.734 15.4915 125.421 15.2699C125.115 15.0426 124.762 14.8693 124.365 14.75C123.973 14.6307 123.538 14.571 123.061 14.571C122.169 14.571 121.384 14.7926 120.708 15.2358C120.038 15.679 119.515 16.3239 119.14 17.1705C118.765 18.0114 118.578 19.0398 118.578 20.2557C118.578 21.4716 118.762 22.5057 119.132 23.358C119.501 24.2102 120.024 24.8608 120.7 25.3097C121.376 25.7528 122.174 25.9744 123.095 25.9744C123.93 25.9744 124.643 25.8267 125.234 25.5312C125.83 25.2301 126.285 24.8068 126.598 24.2614C126.916 23.7159 127.075 23.071 127.075 22.3267L127.825 22.4375H123.325V19.6591H130.629V21.858C130.629 23.392 130.305 24.7102 129.657 25.8125C129.009 26.9091 128.117 27.7557 126.981 28.3523C125.845 28.9432 124.544 29.2386 123.078 29.2386C121.441 29.2386 120.004 28.8778 118.765 28.1562C117.527 27.429 116.561 26.3977 115.867 25.0625C115.18 23.7216 114.836 22.1307 114.836 20.2898C114.836 18.875 115.041 17.6136 115.45 16.5057C115.865 15.392 116.444 14.4489 117.188 13.6761C117.933 12.9034 118.799 12.3153 119.788 11.9119C120.777 11.5085 121.848 11.3068 123.001 11.3068C123.99 11.3068 124.91 11.4517 125.762 11.7415C126.615 12.0256 127.37 12.429 128.029 12.9517C128.694 13.4744 129.237 14.0966 129.657 14.8182C130.078 15.5341 130.348 16.3239 130.467 17.1875H126.717ZM145.544 16.5653C145.476 15.8778 145.183 15.3437 144.666 14.9631C144.149 14.5824 143.448 14.392 142.561 14.392C141.959 14.392 141.45 14.4773 141.036 14.6477C140.621 14.8125 140.303 15.0426 140.081 15.3381C139.865 15.6335 139.757 15.9688 139.757 16.3438C139.746 16.6562 139.811 16.929 139.953 17.1619C140.101 17.3949 140.303 17.5966 140.558 17.767C140.814 17.9318 141.11 18.0767 141.445 18.2017C141.78 18.321 142.138 18.4233 142.519 18.5085L144.087 18.8835C144.848 19.054 145.547 19.2812 146.183 19.5653C146.82 19.8494 147.371 20.1989 147.837 20.6136C148.303 21.0284 148.664 21.517 148.919 22.0795C149.181 22.642 149.314 23.2869 149.32 24.0142C149.314 25.0824 149.041 26.0085 148.502 26.7926C147.968 27.571 147.195 28.1761 146.183 28.608C145.178 29.0341 143.965 29.2472 142.544 29.2472C141.135 29.2472 139.908 29.0312 138.862 28.5994C137.823 28.1676 137.01 27.5284 136.425 26.6818C135.845 25.8295 135.541 24.7756 135.513 23.5199H139.084C139.124 24.1051 139.291 24.5937 139.587 24.9858C139.888 25.3722 140.289 25.6648 140.789 25.8636C141.294 26.0568 141.865 26.1534 142.502 26.1534C143.127 26.1534 143.669 26.0625 144.129 25.8807C144.595 25.6989 144.956 25.446 145.212 25.1222C145.468 24.7983 145.595 24.4261 145.595 24.0057C145.595 23.6136 145.479 23.2841 145.246 23.017C145.019 22.75 144.683 22.5227 144.24 22.3352C143.803 22.1477 143.266 21.9773 142.629 21.8239L140.729 21.3466C139.257 20.9886 138.095 20.429 137.243 19.6676C136.391 18.9062 135.968 17.8807 135.973 16.5909C135.968 15.5341 136.249 14.6108 136.817 13.821C137.391 13.0312 138.178 12.4148 139.178 11.9716C140.178 11.5284 141.314 11.3068 142.587 11.3068C143.882 11.3068 145.013 11.5284 145.979 11.9716C146.95 12.4148 147.706 13.0312 148.246 13.821C148.786 14.6108 149.064 15.5256 149.081 16.5653H145.544ZM156.209 29.2557C154.885 29.2557 153.74 28.9744 152.774 28.4119C151.814 27.8437 151.072 27.054 150.55 26.0426C150.027 25.0256 149.765 23.8466 149.765 22.5057C149.765 21.1534 150.027 19.9716 150.55 18.9602C151.072 17.9432 151.814 17.1534 152.774 16.5909C153.74 16.0227 154.885 15.7386 156.209 15.7386C157.533 15.7386 158.675 16.0227 159.635 16.5909C160.601 17.1534 161.345 17.9432 161.868 18.9602C162.39 19.9716 162.652 21.1534 162.652 22.5057C162.652 23.8466 162.39 25.0256 161.868 26.0426C161.345 27.054 160.601 27.8437 159.635 28.4119C158.675 28.9744 157.533 29.2557 156.209 29.2557ZM156.226 26.4432C156.828 26.4432 157.331 26.2727 157.734 25.9318C158.138 25.5852 158.442 25.1136 158.646 24.517C158.856 23.9205 158.961 23.2415 158.961 22.4801C158.961 21.7188 158.856 21.0398 158.646 20.4432C158.442 19.8466 158.138 19.375 157.734 19.0284C157.331 18.6818 156.828 18.5085 156.226 18.5085C155.618 18.5085 155.106 18.6818 154.692 19.0284C154.283 19.375 153.973 19.8466 153.763 20.4432C153.558 21.0398 153.456 21.7188 153.456 22.4801C153.456 23.2415 153.558 23.9205 153.763 24.517C153.973 25.1136 154.283 25.5852 154.692 25.9318C155.106 26.2727 155.618 26.4432 156.226 26.4432ZM167.203 11.5455V29H163.573V11.5455H167.203ZM177.067 23.4261V15.9091H180.697V29H177.211V26.6222H177.075C176.78 27.3892 176.288 28.0057 175.601 28.4716C174.919 28.9375 174.086 29.1705 173.103 29.1705C172.228 29.1705 171.459 28.9716 170.794 28.5739C170.129 28.1761 169.609 27.6108 169.234 26.8778C168.865 26.1449 168.677 25.267 168.672 24.2443V15.9091H172.302V23.5966C172.308 24.3693 172.515 24.9801 172.925 25.429C173.334 25.8778 173.882 26.1023 174.569 26.1023C175.007 26.1023 175.416 26.0028 175.797 25.804C176.177 25.5994 176.484 25.2983 176.717 24.9006C176.956 24.5028 177.072 24.0114 177.067 23.4261ZM189.124 15.9091V18.6364H181.241V15.9091H189.124ZM183.031 12.7727H186.661V24.9773C186.661 25.3125 186.712 25.5739 186.815 25.7614C186.917 25.9432 187.059 26.071 187.241 26.1449C187.428 26.2187 187.644 26.2557 187.889 26.2557C188.059 26.2557 188.23 26.2415 188.4 26.2131C188.57 26.179 188.701 26.1534 188.792 26.1364L189.363 28.8381C189.181 28.8949 188.926 28.9602 188.596 29.0341C188.266 29.1136 187.866 29.1619 187.394 29.179C186.519 29.2131 185.752 29.0966 185.093 28.8295C184.44 28.5625 183.931 28.1477 183.568 27.5852C183.204 27.0227 183.025 26.3125 183.031 25.4545V12.7727ZM190.049 29V15.9091H193.68V29H190.049ZM191.873 14.2216C191.334 14.2216 190.871 14.0426 190.484 13.6847C190.103 13.321 189.913 12.8864 189.913 12.3807C189.913 11.8807 190.103 11.4517 190.484 11.0938C190.871 10.7301 191.334 10.5483 191.873 10.5483C192.413 10.5483 192.873 10.7301 193.254 11.0938C193.64 11.4517 193.834 11.8807 193.834 12.3807C193.834 12.8864 193.64 13.321 193.254 13.6847C192.873 14.0426 192.413 14.2216 191.873 14.2216ZM201.063 29.2557C199.739 29.2557 198.595 28.9744 197.629 28.4119C196.668 27.8437 195.927 27.054 195.404 26.0426C194.882 25.0256 194.62 23.8466 194.62 22.5057C194.62 21.1534 194.882 19.9716 195.404 18.9602C195.927 17.9432 196.668 17.1534 197.629 16.5909C198.595 16.0227 199.739 15.7386 201.063 15.7386C202.387 15.7386 203.529 16.0227 204.489 16.5909C205.455 17.1534 206.2 17.9432 206.722 18.9602C207.245 19.9716 207.507 21.1534 207.507 22.5057C207.507 23.8466 207.245 25.0256 206.722 26.0426C206.2 27.054 205.455 27.8437 204.489 28.4119C203.529 28.9744 202.387 29.2557 201.063 29.2557ZM201.08 26.4432C201.683 26.4432 202.185 26.2727 202.589 25.9318C202.992 25.5852 203.296 25.1136 203.501 24.517C203.711 23.9205 203.816 23.2415 203.816 22.4801C203.816 21.7188 203.711 21.0398 203.501 20.4432C203.296 19.8466 202.992 19.375 202.589 19.0284C202.185 18.6818 201.683 18.5085 201.08 18.5085C200.472 18.5085 199.961 18.6818 199.546 19.0284C199.137 19.375 198.828 19.8466 198.617 20.4432C198.413 21.0398 198.31 21.7188 198.31 22.4801C198.31 23.2415 198.413 23.9205 198.617 24.517C198.828 25.1136 199.137 25.5852 199.546 25.9318C199.961 26.2727 200.472 26.4432 201.08 26.4432ZM212.058 21.4318V29H208.427V15.9091H211.888V18.2188H212.041C212.331 17.4574 212.817 16.8551 213.498 16.4119C214.18 15.9631 215.007 15.7386 215.978 15.7386C216.888 15.7386 217.68 15.9375 218.356 16.3352C219.032 16.733 219.558 17.3011 219.933 18.0398C220.308 18.7727 220.495 19.6477 220.495 20.6648V29H216.865V21.3125C216.87 20.5114 216.666 19.8864 216.251 19.4375C215.836 18.983 215.265 18.7557 214.538 18.7557C214.049 18.7557 213.618 18.8608 213.243 19.071C212.873 19.2812 212.584 19.5881 212.373 19.9915C212.169 20.3892 212.064 20.8693 212.058 21.4318ZM232.809 19.642L229.485 19.8466C229.428 19.5625 229.306 19.3068 229.119 19.0795C228.931 18.8466 228.684 18.6619 228.377 18.5256C228.076 18.3835 227.715 18.3125 227.295 18.3125C226.732 18.3125 226.258 18.4318 225.872 18.6705C225.485 18.9034 225.292 19.2159 225.292 19.608C225.292 19.9205 225.417 20.1847 225.667 20.4006C225.917 20.6165 226.346 20.7898 226.954 20.9205L229.323 21.3977C230.596 21.6591 231.545 22.0795 232.17 22.6591C232.795 23.2386 233.107 24 233.107 24.9432C233.107 25.8011 232.854 26.554 232.349 27.2017C231.849 27.8494 231.161 28.3551 230.286 28.7188C229.417 29.0767 228.414 29.2557 227.278 29.2557C225.545 29.2557 224.164 28.8949 223.136 28.1733C222.113 27.446 221.514 26.4574 221.337 25.2074L224.908 25.0199C225.016 25.5483 225.278 25.9517 225.693 26.2301C226.107 26.5028 226.639 26.6392 227.286 26.6392C227.923 26.6392 228.434 26.517 228.82 26.2727C229.212 26.0227 229.411 25.7017 229.417 25.3097C229.411 24.9801 229.272 24.7102 228.999 24.5C228.727 24.2841 228.306 24.1193 227.738 24.0057L225.471 23.554C224.193 23.2983 223.241 22.8551 222.616 22.2244C221.997 21.5937 221.687 20.7898 221.687 19.8125C221.687 18.9716 221.914 18.2472 222.369 17.6392C222.829 17.0312 223.474 16.5625 224.303 16.233C225.139 15.9034 226.116 15.7386 227.235 15.7386C228.889 15.7386 230.19 16.0881 231.139 16.7869C232.093 17.4858 232.65 18.4375 232.809 19.642Z" fill="black"/>
</svg>
